<?xml version="1.0" encoding="utf-8"?>
<!-- Generator: Adobe Illustrator 26.4.1, SVG Export Plug-In . SVG Version: 6.00 Build 0)  -->
<svg version="1.1" id="Capa_1" xmlns="http://www.w3.org/2000/svg" xmlns:xlink="http://www.w3.org/1999/xlink" x="0px" y="0px"
	 viewBox="0 0 2028.44 323.56" style="enable-background:new 0 0 2028.44 323.56;" xml:space="preserve">
<style type="text/css">
	.st0{fill:#00510E;}
	.st1{fill:#E9FB7A;}
	.st2{clip-path:url(#SVGID_00000008868938014538174480000005506978265148803498_);fill:#5BCA00;}
	.st3{fill:#00A50C;}
	.st4{fill:#004F0C;}
	.st5{fill:#56CC00;}
	.st6{fill:#00AA09;}
	.st7{fill:#E3F598;}
	.st8{fill:#FFFF9A;}
	.st9{fill:#5DCA00;}
	.st10{fill:#00AC0B;}
	.st11{fill:#5DCC00;}
	.st12{fill:#FCFF95;}
	.st13{fill:#FDB900;}
	.st14{fill:#FDFE74;}
	.st15{fill:#FFF856;}
	.st16{fill:#005A03;}
</style>
<g>
	<g>
		<path class="st0" d="M40.44,51.78v240c0,5.03,4.08,9.11,9.11,9.11h68.89c5.03,0,9.11-4.08,9.11-9.11v-102h8.89v10
			c0,5.03,4.08,9.11,9.11,9.11h24.67v34c0,5.03,4.08,9.11,9.11,9.11h39.56c5.03,0,9.11-4.08,9.11-9.11v-33.56h14.89
			c5.03,0,9.11-4.08,9.11-9.11v-10.89h11.11v102.44c0,5.03,4.08,9.11,9.11,9.11h68c5.03,0,9.11-4.08,9.11-9.11v-240
			c0-5.03-4.08-9.11-9.11-9.11h-68c-5.03,0-9.11,4.08-9.11,9.11v23.33h-18.89c-5.03,0-9.11,4.08-9.11,9.11v15.33h-14.89
			c-5.03,0-9.11,4.08-9.11,9.11v28.22h-24v-29.11c0-5.03-4.08-9.11-9.11-9.11h-14.89V82.44c0-5.03-4.08-9.11-9.11-9.11h-17.56V51.78
			c0-5.03-4.08-9.11-9.11-9.11H49.56C44.52,42.67,40.44,46.75,40.44,51.78z"/>
		<polygon class="st1" points="51.56,56.89 51.56,287.11 118.67,287.11 118.67,177.78 147.11,177.78 147.11,197.78 182.22,197.78 
			182.22,238.22 217.33,238.22 217.33,196.89 241.78,196.89 241.78,177.78 275.11,177.78 275.11,287.11 337.78,287.11 337.78,56.89 
			274.67,56.89 274.67,85.78 246.22,85.78 246.22,110.67 221.33,110.67 221.33,148 176.44,148 176.44,115.56 151.56,115.56 
			151.56,86.67 125.33,86.67 125.33,56.89 		"/>
		<g>
			<defs>
				<polygon id="SVGID_1_" points="59.56,65.33 59.56,177.78 331.56,177.78 331.56,65.33 280,65.33 280,93.78 253.33,93.78 
					253.33,117.33 227.56,117.33 227.56,154.22 170.67,154.22 170.67,121.56 144.44,121.56 144.44,92.89 119.11,92.89 119.11,65.33 
									"/>
			</defs>
			<clipPath id="SVGID_00000118365243165780913790000000973090369668656268_">
				<use xlink:href="#SVGID_1_"  style="overflow:visible;"/>
			</clipPath>
			<polygon style="clip-path:url(#SVGID_00000118365243165780913790000000973090369668656268_);fill:#5BCA00;" points="59.56,65.33 
				59.56,279.11 110.22,279.11 110.22,172.22 153.78,172.22 153.78,190.22 188,190.22 188,231.56 210.67,231.56 210.67,190.22 
				235.56,190.22 235.56,172.22 280.89,172.22 280.89,279.11 331.56,279.11 331.56,65.33 281.22,65.33 281.22,92.89 252.44,92.89 
				252.44,116.44 226.67,116.44 226.67,155.11 170.67,155.11 170.67,121.78 144.89,121.78 144.89,93.33 118.22,93.33 118.22,65.33 
							"/>
		</g>
	</g>
	<polygon class="st3" points="59.56,177.78 59.56,279.56 110.67,279.56 110.22,177.78 	"/>
	<polygon class="st3" points="153.78,177.78 153.78,190 188,190 188,232 211.33,232 211.33,190.22 235.56,190.22 235.56,177.78 	"/>
	<rect x="280.89" y="177.78" class="st3" width="50.67" height="102.44"/>
	<path class="st1" d="M110.67,178.22"/>
</g>
<g>
	<path class="st4" d="M363.26,57.48v232.59c0,8.18,6.63,14.81,14.81,14.81h179.85c8.18,0,14.81-6.63,14.81-14.81v-53.04
		c0-8.18-6.63-14.81-14.81-14.81H450.67v-22.81h89.78c8.18,0,14.81-6.63,14.81-14.81v-38.81c0-8.18-6.63-14.81-14.81-14.81h-90.67
		v-6.52h108.15c8.18,0,14.81-6.63,14.81-14.81V57.48c0-8.18-6.63-14.81-14.81-14.81H378.07C369.89,42.67,363.26,49.3,363.26,57.48z"
		/>
	<polygon class="st5" points="380.89,64 380.89,177.78 537.33,177.78 537.33,150.22 432.44,150.22 432.44,101.78 555.56,101.78 
		555.56,64 	"/>
	<polygon class="st6" points="537.33,177.78 380.89,177.78 380.89,280.44 555.56,280.44 555.56,242.67 432,242.67 432,181.78 
		537.33,181.78 	"/>
	<path class="st7" d="M561.78,110.22V56.44H375.56v232h186.22v-53.33H438.67V188h107.11v-46.22H439.56v-31.56H561.78z
		 M537.33,150.22v31.56H432v60.89h123.56v37.78H380.89V64h174.67v37.78H432.44v48.44H537.33z"/>
</g>
<g>
	<path class="st4" d="M590.67,86.36v175.41c0,6.87,5.57,12.44,12.44,12.44h22.67v19.56c0,6.87,5.57,12.44,12.44,12.44h191.56
		c6.87,0,12.44-5.57,12.44-12.44V144.89c0-6.87-5.57-12.44-12.44-12.44H727.11c-6.87,0-12.44,5.57-12.44,12.44v44
		c0,6.87,5.57,12.44,12.44,12.44h32.44v21.78h-76.89v-98.22h135.11c6.87,0,12.44-5.57,12.44-12.44V54.22
		c0-6.87-5.57-12.44-12.44-12.44H642.67c-6.87,0-12.44,5.57-12.44,12.44v20l-26.97-0.3C596.32,73.84,590.67,79.44,590.67,86.36z"/>
	<path class="st8" d="M726.22,145.33v43.11h44.89v46.67H670.67V111.56h148.89V56.44H642.22v30.67h-40v173.78h34.22v28.89h195.11
		V145.33H726.22z M825.78,281.78H642.22v-29.33h-33.33V92.89h40V64h163.56v37.78h-148v141.33h112v-62.22H732v-27.11h93.78V281.78z"
		/>
	<rect x="732" y="153.78" class="st9" width="93.78" height="24"/>
	<polygon class="st9" points="608.89,92.89 608.89,177.78 664.44,177.78 664.44,101.78 812.44,101.78 812.44,64 648.89,64 
		648.89,92.89 	"/>
	<polygon class="st10" points="608.89,177.78 608.89,252.44 642.22,252.44 642.22,281.78 825.78,281.78 825.78,177.78 732,177.78 
		732,180.89 776.44,180.89 776.44,243.11 664.44,243.11 664.44,177.78 	"/>
</g>
<g>
	<path class="st4" d="M1092.81,73.48h-22v-21.7c0-5.52-4.48-10-10-10H911.93c-5.52,0-10,4.48-10,10v21.7h-34.44
		c-5.52,0-10,4.48-10,10v212.74c0,5.52,4.48,10,10,10h67.7c5.52,0,10-4.48,10-10v-62.74h65.87v62.74c0,5.52,4.48,10,10,10h71.76
		c5.52,0,10-4.48,10-10V83.48C1102.81,77.96,1098.34,73.48,1092.81,73.48z M1011.06,154.96h-64.98v-32h64.98V154.96z"/>
	<path class="st11" d="M1051.85,93.63V64H919.7v29.33l-45.04,0.3v84.15h209.78V93.63H1051.85z M1022.81,165.78h-87.7v-54.96h87.7
		V165.78z"/>
	<path class="st12" d="M1057.78,86.52V56.44H913.19v29.48l-44.44,0.59v203.26h65.78v-68.74h88.3v68.74h67.56V86.52H1057.78z
		 M1084.44,281.78h-57.48v-67.85h-99.56v67.85h-52.74V93.63l45.04,1.19V64h132.15v29.63h32.59V281.78z"/>
	<path class="st12" d="M930.37,102.52V174h98.96v-71.48H930.37z M1022.81,165.78h-87.7v-54.96h87.7V165.78z"/>
	<polygon class="st10" points="874.67,177.78 874.67,281.78 927.41,281.78 927.41,213.93 1026.96,213.93 1026.96,281.78 
		1084.44,281.78 1084.44,177.78 	"/>
</g>
<g>
	<path class="st4" d="M1351.56,159.41c6.95,0,12.59-5.64,12.59-12.59V85.48c0-6.95-5.64-12.59-12.59-12.59h-19.41V54.37
		c0-6.95-5.64-12.59-12.59-12.59h-186.96c-6.95,0-12.59,5.64-12.59,12.59v239.26c0,6.95,5.64,12.59,12.59,12.59h186.96
		c6.95,0,12.59-5.64,12.59-12.59v-22.81h19.41c6.95,0,12.59-5.64,12.59-12.59v-72.74c0-6.95-5.64-12.59-12.59-12.59h-19.41v-13.48
		H1351.56z M1279.7,222.52h-74.07v-23.7h74.07V222.52z M1279.7,130.96h-74.07v-8.59h74.07V130.96z"/>
	<path class="st10" d="M1313.19,191.41v-13.63h-174.81v104h175.41v-29.93h32.59v-60.44H1313.19z M1289.48,234.07h-95.7v-45.33h95.7
		V234.07z"/>
	<path class="st11" d="M1312.59,90.67V64h-174.22v113.78h174.81v-34.37h33.19V90.67H1312.59z M1289.48,142.52h-95.7v-32.3h95.7
		V142.52z"/>
	<path class="st12" d="M1352.3,146.96v-64h-31.41V56.44h-189.63v233.33h187.85v-31.41h33.19V183.7h-32v-36.74H1352.3z
		 M1346.37,191.41v60.44h-32.59v29.93h-175.41V64h174.22v26.67h33.78v52.74h-33.19v48H1346.37z"/>
	<path class="st12" d="M1187.26,102.22v46.52h108.44v-46.52H1187.26z M1289.48,142.52h-95.7v-32.3h95.7V142.52z"/>
	<path class="st12" d="M1187.26,181.93v59.56h108.44v-59.56H1187.26z M1289.48,234.07h-95.7v-45.33h95.7V234.07z"/>
</g>
<g>
	<path class="st13" d="M1612.67,69.93h-22v-21.7c0-5.52-4.48-10-10-10h-148.89c-5.52,0-10,4.48-10,10v21.7h-34.44
		c-5.52,0-10,4.48-10,10v212.74c0,5.52,4.48,10,10,10h67.7c5.52,0,10-4.48,10-10v-62.74h65.87v62.74c0,5.52,4.48,10,10,10h71.76
		c5.52,0,10-4.48,10-10V79.93C1622.67,74.4,1618.19,69.93,1612.67,69.93z M1530.91,151.41h-64.98v-32h64.98V151.41z"/>
	<path class="st14" d="M1571.7,90.07V60.44h-132.15v29.33l-45.04,0.3v84.15h209.78V90.07H1571.7z M1542.67,162.22h-87.7v-54.96h87.7
		V162.22z"/>
	<path class="st12" d="M1577.63,82.96V52.89h-144.59v29.48l-44.44,0.59v203.26h65.78v-68.74h88.3v68.74h67.56V82.96H1577.63z
		 M1604.3,278.22h-57.48v-67.85h-99.56v67.85h-52.74V90.07l45.04,1.19V60.44h132.15v29.63h32.59V278.22z"/>
	<path class="st12" d="M1450.22,98.96v71.48h98.96V98.96H1450.22z M1542.67,162.22h-87.7v-54.96h87.7V162.22z"/>
	<polygon class="st15" points="1394.52,174.22 1394.52,278.22 1447.26,278.22 1447.26,210.37 1546.81,210.37 1546.81,278.22 
		1604.3,278.22 1604.3,174.22 	"/>
</g>
<g>
	<path class="st13" d="M1635.11,53.11v234.67c0,8.22,6.67,14.89,14.89,14.89h59.56c8.22,0,14.89-6.67,14.89-14.89V53.11
		c0-8.22-6.67-14.89-14.89-14.89H1650C1641.78,38.22,1635.11,44.89,1635.11,53.11z"/>
	<path class="st12" d="M1647.56,56.44v229.78H1712V56.44H1647.56z M1703.56,278.22h-48.89V64h48.89V278.22z"/>
	<rect x="1654.67" y="64" class="st14" width="48.89" height="110.22"/>
	<rect x="1654.67" y="174.22" class="st15" width="48.89" height="104"/>
</g>
<g>
	<path class="st16" d="M1748.44,51.33v70.89h74.67v167.33c0,7.24,5.87,13.11,13.11,13.11h68.89c7.24,0,13.11-5.87,13.11-13.11v-166
		h73.56c7.24,0,13.11-5.87,13.11-13.11V38.22h-243.33C1754.31,38.22,1748.44,44.09,1748.44,51.33z"/>
	<path class="st12" d="M1760.89,49.78v60.44h72.89v180.89h71.56V109.33h88.89V49.78H1760.89z M1987.56,102.22H1900V284h-59.11
		V101.78h-72V56.44h218.67V102.22z"/>
	<polygon class="st11" points="1840.89,177.78 1900,177.78 1900,102.22 1987.56,102.22 1987.56,56.44 1768.89,56.44 1768.89,101.78 
		1840.89,101.78 	"/>
	<rect x="1840.89" y="177.78" class="st10" width="59.11" height="106.22"/>
</g>
</svg>
